<svg xmlns="http://www.w3.org/2000/svg" viewBox="0 0 680 330" width="680" height="330" font-family="-apple-system, 'Segoe UI', Helvetica, Arial, sans-serif">
<rect x="56" y="14" width="12" height="12" rx="2" fill="#86b6ef"/>
<text x="74" y="25" fill="#52514e" font-size="12.5" text-anchor="start" font-weight="normal">Open-ended, all models</text>
<rect x="252" y="14" width="12" height="12" rx="2" fill="#2a78d6"/>
<text x="270" y="25" fill="#52514e" font-size="12.5" text-anchor="start" font-weight="normal">Asked directly, short run</text>
<rect x="448" y="14" width="12" height="12" rx="2" fill="#104281"/>
<text x="466" y="25" fill="#52514e" font-size="12.5" text-anchor="start" font-weight="normal">Asked directly, long run</text>
<line x1="56" x2="664" y1="264.0" y2="264.0" stroke="#e4e3df" stroke-width="1"/>
<text x="48" y="268.0" fill="#52514e" font-size="12" text-anchor="end" font-weight="normal">0%</text>
<line x1="56" x2="664" y1="214.0" y2="214.0" stroke="#e4e3df" stroke-width="1"/>
<text x="48" y="218.0" fill="#52514e" font-size="12" text-anchor="end" font-weight="normal">25%</text>
<line x1="56" x2="664" y1="164.0" y2="164.0" stroke="#e4e3df" stroke-width="1"/>
<text x="48" y="168.0" fill="#52514e" font-size="12" text-anchor="end" font-weight="normal">50%</text>
<line x1="56" x2="664" y1="114.0" y2="114.0" stroke="#e4e3df" stroke-width="1"/>
<text x="48" y="118.0" fill="#52514e" font-size="12" text-anchor="end" font-weight="normal">75%</text>
<line x1="56" x2="664" y1="64.0" y2="64.0" stroke="#e4e3df" stroke-width="1"/>
<text x="48" y="68.0" fill="#52514e" font-size="12" text-anchor="end" font-weight="normal">100%</text>
<path d="M154.16000000000003,264 V264 Q154.16000000000003,262 156.16000000000003,262 H176.16000000000003 Q178.16000000000003,262 178.16000000000003,264 V264 Z" fill="#86b6ef"/>
<text x="166.16000000000003" y="255" fill="#0b0b0b" font-size="12.5" text-anchor="middle" font-weight="600">0 of 13</text>
<path d="M208.16000000000003,264 V188.0 Q208.16000000000003,184.0 212.16000000000003,184.0 H228.16000000000003 Q232.16000000000003,184.0 232.16000000000003,188.0 V264 Z" fill="#2a78d6"/>
<text x="220.16000000000003" y="177.0" fill="#0b0b0b" font-size="12.5" text-anchor="middle" font-weight="600">2 of 5</text>
<path d="M262.16,264 V108.0 Q262.16,104.0 266.16,104.0 H282.16 Q286.16,104.0 286.16,108.0 V264 Z" fill="#104281"/>
<text x="274.16" y="97.0" fill="#0b0b0b" font-size="12.5" text-anchor="middle" font-weight="600">4 of 5</text>
<text x="220.16000000000003" y="288" fill="#0b0b0b" font-size="13.5" text-anchor="middle" font-weight="600">Insertion sequence</text>
<text x="220.16000000000003" y="306" fill="#52514e" font-size="12" text-anchor="middle" font-weight="normal">IS5</text>
<path d="M433.84,264 V264 Q433.84,262 435.84,262 H455.84 Q457.84,262 457.84,264 V264 Z" fill="#86b6ef"/>
<text x="445.84" y="255" fill="#0b0b0b" font-size="12.5" text-anchor="middle" font-weight="600">0 of 13</text>
<path d="M487.84,264 V228.0 Q487.84,224.0 491.84,224.0 H507.84 Q511.84,224.0 511.84,228.0 V264 Z" fill="#2a78d6"/>
<text x="499.84" y="217.0" fill="#0b0b0b" font-size="12.5" text-anchor="middle" font-weight="600">1 of 5</text>
<path d="M541.8399999999999,264 V188.0 Q541.8399999999999,184.0 545.8399999999999,184.0 H561.8399999999999 Q565.8399999999999,184.0 565.8399999999999,188.0 V264 Z" fill="#104281"/>
<text x="553.8399999999999" y="177.0" fill="#0b0b0b" font-size="12.5" text-anchor="middle" font-weight="600">2 of 5</text>
<text x="499.84" y="288" fill="#0b0b0b" font-size="13.5" text-anchor="middle" font-weight="600">Frameshifted gene</text>
<text x="499.84" y="306" fill="#52514e" font-size="12" text-anchor="middle" font-weight="normal">prfB</text>
<text x="56" y="50" fill="#52514e" font-size="12" text-anchor="start" font-weight="normal">runs that found the feature and placed it correctly</text>
</svg>
